#!OML:ASF H:\Terrain\Patient Classification 1\Takeo\Monday\TakeoMonday.ASF
:FULLY-SPECIFIED
:DEGREES
236
root 9.95582 17.4262 15.5996 -2.83821 -3.90413 -4.16278
lowerback 9.31677 0.0728404 6.89607
upperback 2.54533 0.788543 1.65425
thorax -2.50053 0.369851 -2.24473
lowerneck -14.4875 1.63189 -1.77427
upperneck -1.05696 2.57745 -3.477
head 2.18167 1.1596 -0.651323
rclavicle -5.56597e-015 -3.97569e-015
rhumerus -17.6469 12.2633 -83.5522
rradius 58.5695
rwrist -22.526
rhand -31.5746 23.788
rfingers 7.12502
rthumb -4.83796 -6.13677
lclavicle -5.56597e-015 -3.97569e-015
lhumerus -48.6525 12.2496 79.2698
lradius 26.4451
lwrist 26.085
lhand -22.9572 24.8482
lfingers 7.12502
lthumb 3.48439 54.7995
rfemur 11.8276 1.7667 29.1915
rtibia 19.2588
rfoot -18.9777 -0.475904
rtoes -11.7201
lfemur -31.5807 -3.14616 -15.9001
ltibia 39.1693
lfoot -12.3245 12.258
ltoes -23.6731
237
root 9.96275 17.4204 15.8304 -2.65527 -4.2667 -4.56462
lowerback 9.21503 0.125198 7.3556
upperback 2.67967 0.883444 1.67465
thorax -2.28691 0.425502 -2.48832
lowerneck -14.7302 1.64295 -1.76508
upperneck -1.14052 2.58663 -3.26538
head 2.19358 1.17078 -0.582482
rclavicle -1.51573e-014 -3.93594e-014
rhumerus -16.0193 12.852 -82.9757
rradius 59.7257
rwrist -22.6613
rhand -31.5786 23.7084
rfingers 7.12502
rthumb -4.84186 -6.2163
lclavicle -1.51573e-014 -3.93594e-014
lhumerus -49.1368 12.967 78.5307
lradius 25.7865
lwrist 25.4932
lhand -23.027 25.2701
lfingers 7.12502
lthumb 3.41702 55.2224
rfemur 13.0466 1.72131 29.4438
rtibia 17.9996
rfoot -18.2885 -0.0210371
rtoes -13.601
lfemur -31.9111 -3.60057 -15.1496
ltibia 36.3339
lfoot -12.093 12.9597
ltoes -23.8303
238
root 9.97116 17.4114 16.0613 -2.482 -4.67639 -4.8855
lowerback 9.26608 0.217395 7.66141
upperback 2.69633 1.03933 1.75959
thorax -2.27758 0.502742 -2.58762
lowerneck -14.7396 1.62029 -1.59591
upperneck -1.2945 2.5298 -3.45722
head 2.14879 1.13837 -0.677827
rclavicle -1.02871e-014 4.37326e-015
rhumerus -14.6813 13.1859 -82.3676
rradius 60.7556
rwrist -22.5586
rhand -31.6983 23.8146
rfingers 7.12502
rthumb -4.95745 -6.10743
lclavicle -1.02871e-014 4.37326e-015
lhumerus -49.64 13.7326 77.8388
lradius 25.0446
lwrist 24.5916
lhand -22.9291 26.4361
lfingers 7.12502
lthumb 3.51159 56.3869
rfemur 14.27 1.90419 29.6254
rtibia 16.8369
rfoot -17.5945 0.645371
rtoes -13.0242
lfemur -32.1647 -4.14359 -14.4266
ltibia 33.6
lfoot -11.982 13.7056
ltoes -23.9611
239
root 9.98252 17.3989 16.3005 -2.39337 -5.09437 -5.03696
lowerback 9.3259 0.354148 7.8613
upperback 2.71075 1.24507 1.8206
thorax -2.27117 0.604797 -2.65813
lowerneck -14.7818 1.60005 -1.5621
upperneck -1.29597 2.50418 -3.61474
head 2.15919 1.11965 -0.736081
rclavicle -5.26779e-015 -3.1408e-014
rhumerus -13.5811 13.1334 -81.791
rradius 61.7361
rwrist -22.3447
rhand -31.6592 24.122
rfingers 7.12502
rthumb -4.9197 -5.80084
lclavicle -5.26779e-015 -3.1408e-014
lhumerus -50.0605 14.005 77.5352
lradius 24.1321
lwrist 24.2615
lhand -23.5405 26.2982
lfingers 7.12502
lthumb 2.9211 56.2579
rfemur 15.5579 2.11006 29.6034
rtibia 15.7905
rfoot -17.0104 1.34033
rtoes -11.9246
lfemur -32.3257 -4.54442 -13.9408
ltibia 31.0647
lfoot -12.2871 14.3857
ltoes -24.5026
240
root 9.99452 17.381 16.5428 -2.35676 -5.54003 -5.04379
lowerback 9.36794 0.477253 7.9662
upperback 2.76647 1.41613 1.75683
thorax -2.21364 0.692959 -2.80123
lowerneck -14.767 1.6586 -1.57408
upperneck -1.43556 2.57394 -3.49803
head 2.10732 1.16134 -0.69213
rclavicle 9.44227e-016 -8.34896e-015
rhumerus -12.4671 13.1968 -81.2647
rradius 62.6304
rwrist -21.9623
rhand -31.5946 24.2249
rfingers 7.12502
rthumb -4.85732 -5.69939
lclavicle 9.44227e-016 -8.34896e-015
lhumerus -50.506 14.2838 77.0586
lradius 23.4028
lwrist 24.0986
lhand -24.0639 25.508
lfingers 7.12502
lthumb 2.41564 55.4741
rfemur 16.9829 2.29433 29.421
rtibia 14.5471
rfoot -16.2591 1.90397
rtoes -11.8651
lfemur -32.4949 -4.6913 -13.6981
ltibia 28.9713
lfoot -12.7015 14.9418
ltoes -24.7322
241
root 10.0093 17.3612 16.7926 -2.31136 -5.90135 -4.91018
lowerback 9.37642 0.551495 7.8604
upperback 2.78087 1.50227 1.68756
thorax -2.19533 0.736867 -2.82349
lowerneck -14.4738 1.72671 -1.33905
upperneck -1.93133 2.60825 -3.80131
head 1.89722 1.18024 -0.831278
rclavicle -5.66536e-015 -2.26615e-014
rhumerus -11.4438 13.3537 -80.7256
rradius 63.5047
rwrist -21.3683
rhand -31.8158 24.3598
rfingers 7.12502
rthumb -5.07089 -5.55953
lclavicle -5.66536e-015 -2.26615e-014
lhumerus -51.1621 15.1253 76.1837
lradius 22.9212
lwrist 23.1982
lhand -24.1236 25.2335
lfingers 7.12502
lthumb 2.35802 55.2002
rfemur 18.6127 2.33538 29.0268
rtibia 12.874
rfoot -15.2279 2.44675
rtoes -12.6435
lfemur -32.7152 -4.73842 -13.7655
ltibia 27.5154
lfoot -12.9697 15.329
ltoes -24.947
